<svg width="236" height="236" viewBox="0 0 236 236" fill="none" xmlns="http://www.w3.org/2000/svg">
<path d="M118 0C53.5 0 0 53.5 0 118C0 182.5 53.5 236 118 236C182.5 236 236 182.5 236 118C236 51.9 182.5 0 118 0ZM118 220.3C61.4 220.3 15.7 174.7 15.7 118C15.7 61.4 61.4 15.7 118 15.7C174.6 15.7 220.3 61.3 220.3 118C220.3 174.6 173.1 220.3 118 220.3Z" fill="white"/>
<path d="M169.9 64.5H64.5001C59.8001 64.5 56.6001 67.7 56.6001 72.4C56.6001 77.1 59.8001 80.3 64.5001 80.3H169.9C174.6 80.3 177.8 77.1 177.8 72.4C177.8 67.7 174.6 64.5 169.9 64.5Z" fill="white"/>
<path d="M169.9 110.1H64.5001C59.8001 110.1 56.6001 113.3 56.6001 118C56.6001 122.7 59.8001 125.9 64.5001 125.9H169.9C174.6 125.9 177.8 122.7 177.8 118C177.8 113.3 174.6 110.1 169.9 110.1Z" fill="white"/>
<path d="M169.9 154.2H64.5001C59.8001 154.2 56.6001 157.4 56.6001 162.1C56.6001 166.8 59.8001 170 64.5001 170H169.9C174.6 170 177.8 166.8 177.8 162.1C177.8 157.4 174.6 154.2 169.9 154.2Z" fill="white"/>
</svg>
